<svg width="24" height="40" viewBox="0 0 24 40" fill="none" xmlns="http://www.w3.org/2000/svg">
<path d="M13.1133 15.5557H10.8911V24.4446H13.1133V15.5557Z" fill="#09162E"/>
<path d="M21.4464 4.44444C21.1398 4.44444 20.8909 4.19556 20.8909 3.88889V2.22222H19.2242C18.9175 2.22222 18.6686 1.97333 18.6686 1.66667V0H5.33531V1.66667C5.33531 1.97333 5.08642 2.22222 4.77976 2.22222H3.11309V3.88889C3.11309 4.19556 2.8642 4.44444 2.55754 4.44444H0.890869V35.5556H2.55754C2.8642 35.5556 3.11309 35.8044 3.11309 36.1111V37.7778H4.77976C5.08642 37.7778 5.33531 38.0267 5.33531 38.3333V40H18.6686V38.3333C18.6686 38.0267 18.9175 37.7778 19.2242 37.7778H20.8909V36.1111C20.8909 35.8044 21.1398 35.5556 21.4464 35.5556H23.1131V4.44444H21.4464ZM18.6686 35.5556V37.2222C18.6686 37.5289 18.4198 37.7778 18.1131 37.7778H5.89087C5.5842 37.7778 5.33531 37.5289 5.33531 37.2222V35.5556H3.66865C3.36198 35.5556 3.11309 35.3067 3.11309 35V5C3.11309 4.69333 3.36198 4.44444 3.66865 4.44444H5.33531V2.77778C5.33531 2.47111 5.5842 2.22222 5.89087 2.22222H18.1131C18.4198 2.22222 18.6686 2.47111 18.6686 2.77778V4.44444H20.3353C20.642 4.44444 20.8909 4.69333 20.8909 5V35C20.8909 35.3067 20.642 35.5556 20.3353 35.5556H18.6686Z" fill="#09162E"/>
</svg>
