<svg width="24" height="40" viewBox="0 0 24 40" fill="none" xmlns="http://www.w3.org/2000/svg">
<path d="M13.6686 37.7778C13.362 37.7778 13.1131 37.5289 13.1131 37.2222V11.1111H11.4464C11.1398 11.1111 10.8909 10.8622 10.8909 10.5556V9.44444C10.8909 9.13778 11.1398 8.88889 11.4464 8.88889H13.1131V0H10.8909V8.33333C10.8909 8.64 10.642 8.88889 10.3353 8.88889H0.890869V11.1111H10.3353C10.642 11.1111 10.8909 11.36 10.8909 11.6667V37.2222C10.8909 37.5289 10.642 37.7778 10.3353 37.7778H0.890869V40H10.8909V38.3333C10.8909 38.0267 11.1398 37.7778 11.4464 37.7778H12.5575C12.8642 37.7778 13.1131 38.0267 13.1131 38.3333V40H23.1131V37.7778H13.6686Z" fill="#09162E"/>
</svg>
