<svg width="24" height="40" viewBox="0 0 24 40" fill="none" xmlns="http://www.w3.org/2000/svg">
<path d="M19.2222 17.7778H20.8889V16.1111C20.8889 15.8044 21.1378 15.5556 21.4445 15.5556H23.1111V4.44444H21.4445C21.1378 4.44444 20.8889 4.19556 20.8889 3.88889V2.22222H19.2222C18.9156 2.22222 18.6667 1.97333 18.6667 1.66667V0H5.33336V1.66667C5.33336 1.97333 5.08447 2.22222 4.7778 2.22222H3.11114V3.88889C3.11114 4.19556 2.86225 4.44444 2.55558 4.44444H0.888916V6.66667H3.11114V5C3.11114 4.69333 3.36003 4.44444 3.66669 4.44444H5.33336V2.77778C5.33336 2.47111 5.58225 2.22222 5.88892 2.22222H18.1111C18.4178 2.22222 18.6667 2.47111 18.6667 2.77778V4.44444H20.3334C20.64 4.44444 20.8889 4.69333 20.8889 5V15C20.8889 15.3067 20.64 15.5556 20.3334 15.5556H18.6667V17.2222C18.6667 17.5289 18.4178 17.7778 18.1111 17.7778H5.33336V20H18.1111C18.4178 20 18.6667 20.2489 18.6667 20.5556V22.2222H20.3334C20.64 22.2222 20.8889 22.4711 20.8889 22.7778V35C20.8889 35.3067 20.64 35.5556 20.3334 35.5556H18.6667V37.2222C18.6667 37.5289 18.4178 37.7778 18.1111 37.7778H5.88892C5.58225 37.7778 5.33336 37.5289 5.33336 37.2222V35.5556H3.66669C3.36003 35.5556 3.11114 35.3067 3.11114 35V33.3333H0.888916V35.5556H2.55558C2.86225 35.5556 3.11114 35.8044 3.11114 36.1111V37.7778H4.7778C5.08447 37.7778 5.33336 38.0267 5.33336 38.3333V40H18.6667V38.3333C18.6667 38.0267 18.9156 37.7778 19.2222 37.7778H20.8889V36.1111C20.8889 35.8044 21.1378 35.5556 21.4445 35.5556H23.1111V22.2222H21.4445C21.1378 22.2222 20.8889 21.9733 20.8889 21.6667V20H19.2222C18.9156 20 18.6667 19.7511 18.6667 19.4444V18.3333C18.6667 18.0267 18.9156 17.7778 19.2222 17.7778Z" fill="#09162E"/>
</svg>
