<svg width="40" height="40" viewBox="0 0 40 40" fill="none" xmlns="http://www.w3.org/2000/svg">
<path d="M21.1153 21.6667C21.1153 21.36 21.3642 21.1111 21.6708 21.1111H40.0042V18.8889H21.6708C21.3642 18.8889 21.1153 18.64 21.1153 18.3333V0H18.8931V18.3333C18.8931 18.64 18.6442 18.8867 18.3375 18.8867H0.00195312V21.1089H18.3353C18.642 21.1089 18.8908 21.3578 18.8908 21.6644V39.9978H21.1131V21.6622L21.1153 21.6667ZM18.8931 20.5556V19.4422C18.8931 19.1356 19.142 18.8889 19.4486 18.8889H20.5597C20.8664 18.8889 21.1131 19.1356 21.1153 19.4422V20.5578C21.1153 20.8644 20.8664 21.1111 20.5597 21.1111H19.4464C19.1397 21.1111 18.8908 20.8622 18.8908 20.5578L18.8931 20.5556Z" fill="#09162E"/>
</svg>
