<svg width="40" height="40" viewBox="0 0 40 40" fill="none" xmlns="http://www.w3.org/2000/svg">
<path d="M40.002 18.8887H0.00195312V21.1109H40.002V18.8887Z" fill="#09162E"/>
<path d="M15.5582 11.6667V13.3333H24.447V11.6667C24.447 11.36 24.6959 11.1111 25.0026 11.1111H26.6693V2.22222H25.0026C24.6959 2.22222 24.447 1.97333 24.447 1.66667V0H15.5582V1.66667C15.5582 1.97333 15.3093 2.22222 15.0026 2.22222H13.3359V11.1111H15.0026C15.3093 11.1111 15.5582 11.36 15.5582 11.6667ZM23.8915 2.22222C24.1982 2.22222 24.447 2.47111 24.447 2.77778V10.5556C24.447 10.8622 24.1982 11.1111 23.8915 11.1111H16.1137C15.807 11.1111 15.5582 10.8622 15.5582 10.5556V2.77778C15.5582 2.47111 15.807 2.22222 16.1137 2.22222H23.8915Z" fill="#09162E"/>
<path d="M24.447 28.3337V26.667H15.5582V28.3337C15.5582 28.6403 15.3093 28.8892 15.0026 28.8892H13.3359V37.7781H15.0026C15.3093 37.7781 15.5582 38.027 15.5582 38.3337V40.0003H24.447V38.3337C24.447 38.027 24.6959 37.7781 25.0026 37.7781H26.6693V28.8892H25.0026C24.6959 28.8892 24.447 28.6403 24.447 28.3337ZM16.1137 37.7781C15.807 37.7781 15.5582 37.5292 15.5582 37.2225V29.4448C15.5582 29.1381 15.807 28.8892 16.1137 28.8892H23.8915C24.1982 28.8892 24.447 29.1381 24.447 29.4448V37.2225C24.447 37.5292 24.1982 37.7781 23.8915 37.7781H16.1137Z" fill="#09162E"/>
</svg>
