<svg width="40" height="40" viewBox="0 0 40 40" fill="none" xmlns="http://www.w3.org/2000/svg">
<path d="M40.002 18.8889V21.1111H0.00195312V18.8889H40.002ZM22.2242 26.6667H20.002V28.8889H22.2242V26.6667ZM13.3353 26.6667H11.1131V28.8889H13.3353V26.6667ZM6.66862 29.4444C6.66862 29.1378 6.91751 28.8889 7.22418 28.8889H8.89084V26.6667H6.66862V28.3333C6.66862 28.64 6.41973 28.8889 6.11306 28.8889H4.4464V33.3333H6.66862V29.4444ZM33.3353 37.2222C33.3353 37.5289 33.0864 37.7778 32.7797 37.7778H31.1131V40H33.3353V38.3333C33.3353 38.0267 33.5842 37.7778 33.8908 37.7778H35.5575V33.3333H33.3353V37.2222ZM33.3353 28.3333V26.6667H28.8908V28.8889H32.7797C33.0864 28.8889 33.3353 29.1378 33.3353 29.4444V31.1111H35.5575V28.8889H33.8908C33.5842 28.8889 33.3353 28.64 33.3353 28.3333ZM13.3353 40H15.5575V37.7778H13.3353V40ZM22.2242 40H24.4464V37.7778H22.2242V40ZM26.6686 26.6667H24.4464V28.8889H26.6686V26.6667ZM26.6686 40H28.8908V37.7778H26.6686V40ZM6.66862 37.2222V35.5556H4.4464V37.7778H6.11306C6.41973 37.7778 6.66862 38.0267 6.66862 38.3333V40H11.1131V37.7778H7.22418C6.91751 37.7778 6.66862 37.5289 6.66862 37.2222ZM22.2242 0H20.002V2.22222H22.2242V0ZM13.3353 0H11.1131V2.22222H13.3353V0ZM6.66862 2.77778C6.66862 2.47111 6.91751 2.22222 7.22418 2.22222H8.89084V0H6.66862V1.66667C6.66862 1.97333 6.41973 2.22222 6.11306 2.22222H4.4464V6.66667H6.66862V2.77778ZM33.3353 10.5556C33.3353 10.8622 33.0864 11.1111 32.7797 11.1111H31.1131V13.3333H33.3353V11.6667C33.3353 11.36 33.5842 11.1111 33.8908 11.1111H35.5575V6.66667H33.3353V10.5556ZM33.3353 2.77778V4.44444H35.5575V2.22222H33.8908C33.5842 2.22222 33.3353 1.97333 33.3353 1.66667V0H28.8908V2.22222H32.7797C33.0864 2.22222 33.3353 2.47111 33.3353 2.77778ZM13.3353 13.3333H15.5575V11.1111H13.3353V13.3333ZM22.2242 13.3333H24.4464V11.1111H22.2242V13.3333ZM17.7797 26.6667H15.5575V28.8889H17.7797V26.6667ZM17.7797 40H20.002V37.7778H17.7797V40ZM17.7797 0H15.5575V2.22222H17.7797V0ZM17.7797 13.3333H20.002V11.1111H17.7797V13.3333ZM26.6686 0H24.4464V2.22222H26.6686V0ZM26.6686 13.3333H28.8908V11.1111H26.6686V13.3333ZM6.66862 11.6667V13.3333H11.1131V11.1111H7.22418C6.91751 11.1111 6.66862 10.8622 6.66862 10.5556V8.88889H4.4464V11.1111H6.11306C6.41973 11.1111 6.66862 11.36 6.66862 11.6667Z" fill="#09162E"/>
</svg>
