<svg width="29" height="24" viewBox="0 0 29 24" fill="none" xmlns="http://www.w3.org/2000/svg">
<path d="M3.128 9H1.916V3.672H0.512V2.64H1.916V2.172C1.916 0.948 2.576 0.275999 3.776 0.275999C4.136 0.275999 4.424 0.335999 4.664 0.431999V1.416C4.472 1.332 4.256 1.308 4.04 1.308C3.464 1.308 3.128 1.572 3.128 2.184V2.64H4.904V3.672H3.128V9ZM8.54028 11.316H7.34028C6.35628 9.816 5.81628 7.836 5.81628 5.844C5.81628 3.864 6.35628 1.884 7.34028 0.383999H8.54028C7.54428 1.884 7.06428 3.864 7.06428 5.844C7.06428 7.836 7.54428 9.816 8.54028 11.316ZM10.2031 9H8.83513L11.0911 5.748L8.97913 2.64H10.3831L11.9551 5.04L13.5271 2.64H14.8351L12.7471 5.784L14.9791 9H13.5871L11.8831 6.468L10.2031 9ZM16.4813 11.316H15.2813C16.2773 9.816 16.7693 7.836 16.7693 5.844C16.7693 3.864 16.2773 1.884 15.2813 0.383999H16.4813C17.4653 1.884 18.0053 3.864 18.0053 5.844C18.0053 7.836 17.4653 9.816 16.4813 11.316ZM24.8759 4.38L26.7959 6.54C26.9399 6.12 27.0239 5.604 27.0479 5.052H28.1639C28.1399 5.856 27.8999 6.696 27.5159 7.344L28.9919 9H27.4799L26.7959 8.232C26.1479 8.82 25.3919 9.12 24.5999 9.12C22.8719 9.12 21.7679 8.112 21.7679 6.54C21.7679 5.568 22.3919 4.788 23.3399 4.332C22.9679 3.828 22.7879 3.384 22.7879 2.808C22.7879 1.632 23.7839 0.767999 25.1159 0.767999C26.4599 0.767999 27.3959 1.608 27.4199 2.844H26.2799C26.2199 2.136 25.7039 1.74 25.1159 1.74C24.4919 1.74 24.0239 2.196 24.0239 2.82C24.0239 3.36 24.3119 3.732 24.8759 4.38ZM22.9319 6.468C22.9319 7.32 23.4959 8.124 24.6959 8.124C25.2479 8.124 25.7759 7.908 26.1719 7.536L23.9639 5.052C23.3519 5.304 22.9319 5.808 22.9319 6.468ZM2.564 21H1.34V12.384H2.564V21ZM6.91025 21.12C5.11025 21.12 3.79025 19.704 3.79025 17.82C3.79025 15.936 5.11025 14.52 6.91025 14.52C8.71025 14.52 10.0303 15.936 10.0303 17.82C10.0303 19.704 8.71025 21.12 6.91025 21.12ZM6.91025 20.052C7.95425 20.052 8.78225 19.212 8.78225 17.82C8.78225 16.428 7.95425 15.6 6.91025 15.6C5.86625 15.6 5.05025 16.428 5.05025 17.82C5.05025 19.212 5.86625 20.052 6.91025 20.052ZM13.6926 23.448C12.0246 23.448 10.9446 22.56 10.8726 21.12H12.0486C12.1206 22.008 12.6966 22.488 13.6806 22.488C14.7726 22.488 15.3486 21.9 15.3486 20.808V19.656C14.9886 20.424 14.2686 20.868 13.4046 20.868C11.8206 20.868 10.6926 19.56 10.6926 17.688C10.6926 15.792 11.7726 14.52 13.3686 14.52C14.2806 14.52 15.0006 14.964 15.4326 15.768V14.64H16.5606V20.784C16.5606 22.452 15.4926 23.448 13.6926 23.448ZM11.9166 17.688C11.9166 19.008 12.5646 19.812 13.6206 19.812C14.6526 19.812 15.3486 18.984 15.3486 17.724C15.3486 16.404 14.6646 15.564 13.6206 15.564C12.5766 15.564 11.9166 16.38 11.9166 17.688ZM21.9703 21H20.7463V12.384H21.9703V21ZM24.8645 17.412V21H23.6525V14.64H24.7805V15.696C25.2125 14.988 25.9325 14.52 26.8085 14.52C28.1165 14.52 28.9805 15.36 28.9805 16.884V21H27.7685V17.292C27.7685 16.2 27.2885 15.588 26.3885 15.588C25.5605 15.588 24.8645 16.284 24.8645 17.412Z" fill="#122B5A"/>
</svg>
