<svg width="14" height="40" viewBox="0 0 14 40" fill="none" xmlns="http://www.w3.org/2000/svg">
<path d="M2.89082 15.5556H4.55748V9.44444C4.55748 9.13778 4.80637 8.88889 5.11304 8.88889H6.7797V5C6.7797 4.69333 7.02859 4.44444 7.33526 4.44444H9.00193V2.77778C9.00193 2.47111 9.25082 2.22222 9.55748 2.22222H13.4464V0H9.00193V1.66667C9.00193 1.97333 8.75304 2.22222 8.44637 2.22222H6.7797V3.88889C6.7797 4.19556 6.53082 4.44444 6.22415 4.44444H4.55748V8.33333C4.55748 8.64 4.30859 8.88889 4.00193 8.88889H2.33526V15C2.33526 15.3067 2.08637 15.5556 1.7797 15.5556H0.113037V24.4444H1.7797C2.08637 24.4444 2.33526 24.6933 2.33526 25V31.1111H4.00193C4.30859 31.1111 4.55748 31.36 4.55748 31.6667V35.5556H6.22415C6.53082 35.5556 6.7797 35.8044 6.7797 36.1111V37.7778H8.44637C8.75304 37.7778 9.00193 38.0267 9.00193 38.3333V40H13.4464V37.7778H9.55748C9.25082 37.7778 9.00193 37.5289 9.00193 37.2222V35.5556H7.33526C7.02859 35.5556 6.7797 35.3067 6.7797 35V31.1111H5.11304C4.80637 31.1111 4.55748 30.8622 4.55748 30.5556V24.4444H2.89082C2.58415 24.4444 2.33526 24.1956 2.33526 23.8889V16.1111C2.33526 15.8044 2.58415 15.5556 2.89082 15.5556Z" fill="#09162E"/>
</svg>
