<svg width="24" height="24" viewBox="0 0 24 24" fill="none" xmlns="http://www.w3.org/2000/svg">
<path d="M7.27889 5.88889C7.12556 5.88889 7.00111 5.76444 7.00111 5.61111V2H5.89V5.61111C5.89 5.76444 5.76556 5.88778 5.61222 5.88778H2V6.99889H5.61111C5.76444 6.99889 5.88889 7.12333 5.88889 7.27667V10.8878H7V7.27556C7 7.12222 7.12444 6.99889 7.27778 6.99889H10.8889V5.88778H7.27778L7.27889 5.88889ZM7.00111 6.72333C7.00111 6.87667 6.87667 7 6.72333 7H6.16778C6.01444 7 5.89 6.87556 5.89 6.72333V6.16667C5.89 6.01333 6.01444 5.89 6.16778 5.89H6.72333C6.87667 5.89 7 6.01333 7.00111 6.16667V6.72444V6.72333ZM22.0011 5.88889V7H13.1122V5.88889H22.0011ZM7.42778 17.7522C7.31889 17.6433 7.31889 17.4678 7.42778 17.3589L10.7278 14.0589L9.94222 13.2733L6.64222 16.5733C6.53333 16.6811 6.35778 16.6811 6.24889 16.5733L2.94889 13.2733L2.16333 14.0589L5.46333 17.3589C5.57222 17.4678 5.57222 17.6433 5.46333 17.7522L2.16333 21.0522L2.94889 21.8378L6.24889 18.5378C6.35778 18.43 6.53333 18.43 6.64222 18.5378L9.94222 21.8378L10.7278 21.0522L7.42778 17.7522ZM7.03555 17.7511L6.64111 18.1456C6.53222 18.2533 6.35778 18.2533 6.24889 18.1456L5.85556 17.7522C5.74778 17.6444 5.74667 17.4689 5.85556 17.36L6.24889 16.9667C6.35778 16.8589 6.53333 16.8589 6.64111 16.9667L7.03444 17.36C7.14222 17.4678 7.14333 17.6433 7.03444 17.7522L7.03555 17.7511ZM13.1122 17H22.0011V18.1111H13.1122V17ZM18.1122 13.1111V13.3889C18.1122 13.5422 18.2367 13.6667 18.39 13.6667H18.6678V14.7778H18.39C18.2367 14.7778 18.1122 14.9022 18.1122 15.0556V15.3333H17.0011V15.0556C17.0011 14.9022 16.8767 14.7778 16.7233 14.7778H16.4456V13.6667H16.7233C16.8767 13.6667 17.0011 13.5422 17.0011 13.3889V13.1111H18.1122ZM18.39 20.3333H18.6678V21.4444H18.39C18.2367 21.4444 18.1122 21.5689 18.1122 21.7222V22H17.0011V21.7222C17.0011 21.5689 16.8767 21.4444 16.7233 21.4444H16.4456V20.3333H16.7233C16.8767 20.3333 17.0011 20.2089 17.0011 20.0556V19.7778H18.1122V20.0556C18.1122 20.2089 18.2367 20.3333 18.39 20.3333Z" fill="#09162E"/>
</svg>
