<svg width="28" height="20" viewBox="0 0 28 20" fill="none" xmlns="http://www.w3.org/2000/svg">
<path d="M1.38889 7.77778H2.22222V4.72222C2.22222 4.56889 2.34667 4.44444 2.5 4.44444H3.33333V2.5C3.33333 2.34667 3.45778 2.22222 3.61111 2.22222H4.44444V1.38889C4.44444 1.23556 4.56889 1.11111 4.72222 1.11111H6.66667V0H4.44444V0.833333C4.44444 0.986667 4.32 1.11111 4.16667 1.11111H3.33333V1.94444C3.33333 2.09778 3.20889 2.22222 3.05556 2.22222H2.22222V4.16667C2.22222 4.32 2.09778 4.44444 1.94444 4.44444H1.11111V7.5C1.11111 7.65333 0.986667 7.77778 0.833333 7.77778H0V12.2222H0.833333C0.986667 12.2222 1.11111 12.3467 1.11111 12.5V15.5556H1.94444C2.09778 15.5556 2.22222 15.68 2.22222 15.8333V17.7778H3.05556C3.20889 17.7778 3.33333 17.9022 3.33333 18.0556V18.8889H4.16667C4.32 18.8889 4.44444 19.0133 4.44444 19.1667V20H6.66667V18.8889H4.72222C4.56889 18.8889 4.44444 18.7644 4.44444 18.6111V17.7778H3.61111C3.45778 17.7778 3.33333 17.6533 3.33333 17.5V15.5556H2.5C2.34667 15.5556 2.22222 15.4311 2.22222 15.2778V12.2222H1.38889C1.23556 12.2222 1.11111 12.0978 1.11111 11.9444V8.05556C1.11111 7.90222 1.23556 7.77778 1.38889 7.77778Z" fill="#122B5A"/>
<path d="M11.7777 3.61106C11.7777 3.45772 11.9022 3.33328 12.0555 3.33328H12.8888V2.22217H11.7777V3.0555C11.7777 3.20883 11.6533 3.33328 11.5 3.33328H10.6666V5.5555H11.7777V3.61106ZM10.6666 9.99995H11.7777V8.88883H10.6666V9.99995ZM10.6666 12.2222H11.7777V11.1111H10.6666V12.2222ZM10.6666 14.4444H11.7777V13.3333H10.6666V14.4444ZM10.6666 7.77772H11.7777V6.66661H10.6666V7.77772ZM16.2222 8.88883H17.3333V7.77772H16.2222V8.88883ZM16.2222 11.1111H17.3333V9.99995H16.2222V11.1111ZM16.2222 13.3333H17.3333V12.2222H16.2222V13.3333ZM16.2222 6.66661H17.3333V5.5555H16.2222V6.66661ZM16.2222 16.3888C16.2222 16.5422 16.0977 16.6666 15.9444 16.6666H15.1111V17.7777H16.2222V16.9444C16.2222 16.7911 16.3466 16.6666 16.5 16.6666H17.3333V14.4444H16.2222V16.3888ZM16.2222 3.0555V2.22217H14V3.33328H15.9444C16.0977 3.33328 16.2222 3.45772 16.2222 3.61106V4.44439H17.3333V3.33328H16.5C16.3466 3.33328 16.2222 3.20883 16.2222 3.0555ZM11.7777 16.3888V15.5555H10.6666V16.6666H11.5C11.6533 16.6666 11.7777 16.7911 11.7777 16.9444V17.7777H14V16.6666H12.0555C11.9022 16.6666 11.7777 16.5422 11.7777 16.3888Z" fill="#122B5A"/>
<path d="M26.6111 12.2222L25.7778 12.2222L25.7778 15.2778C25.7778 15.4311 25.6533 15.5556 25.5 15.5556L24.6667 15.5556L24.6667 17.5C24.6667 17.6533 24.5422 17.7778 24.3889 17.7778L23.5556 17.7778L23.5556 18.6111C23.5556 18.7644 23.4311 18.8889 23.2778 18.8889L21.3333 18.8889L21.3333 20L23.5556 20L23.5556 19.1667C23.5556 19.0133 23.68 18.8889 23.8333 18.8889L24.6667 18.8889L24.6667 18.0556C24.6667 17.9022 24.7911 17.7778 24.9444 17.7778L25.7778 17.7778L25.7778 15.8333C25.7778 15.68 25.9022 15.5556 26.0556 15.5556L26.8889 15.5556L26.8889 12.5C26.8889 12.3467 27.0133 12.2222 27.1667 12.2222L28 12.2222L28 7.77778L27.1667 7.77778C27.0133 7.77778 26.8889 7.65333 26.8889 7.5L26.8889 4.44444L26.0556 4.44444C25.9022 4.44444 25.7778 4.32 25.7778 4.16666L25.7778 2.22222L24.9444 2.22222C24.7911 2.22222 24.6667 2.09778 24.6667 1.94444L24.6667 1.11111L23.8333 1.11111C23.68 1.11111 23.5556 0.986665 23.5556 0.833332L23.5556 -2.29589e-06L21.3333 -2.49017e-06L21.3333 1.11111L23.2778 1.11111C23.4311 1.11111 23.5556 1.23555 23.5556 1.38889L23.5556 2.22222L24.3889 2.22222C24.5422 2.22222 24.6667 2.34666 24.6667 2.5L24.6667 4.44444L25.5 4.44444C25.6533 4.44444 25.7778 4.56889 25.7778 4.72222L25.7778 7.77778L26.6111 7.77778C26.7644 7.77778 26.8889 7.90222 26.8889 8.05555L26.8889 11.9444C26.8889 12.0978 26.7644 12.2222 26.6111 12.2222Z" fill="#122B5A"/>
</svg>
