<svg width="24" height="24" viewBox="0 0 24 24" fill="none" xmlns="http://www.w3.org/2000/svg">
<path d="M15.334 5.88867H14.501C14.3477 5.88875 14.2236 6.01371 14.2236 6.16699V8.66699H13.3896C13.2365 8.66719 13.1124 8.79117 13.1123 8.94434V12H12.2793C12.1261 12 12.0012 12.1242 12.001 12.2773V15.333H11.168C11.0146 15.333 10.8896 15.458 10.8896 15.6113V18.1113H10.0566C9.9034 18.1113 9.77941 18.2354 9.7793 18.3887V22H8.66797V18.1113H9.50098C9.65431 18.1113 9.7793 17.9863 9.7793 17.833V15.333H10.6123C10.7656 15.333 10.8896 15.2089 10.8896 15.0557V12H11.7236C11.8767 11.9998 12.0007 11.8757 12.001 11.7227V8.66699H12.834C12.9873 8.66699 13.1123 8.54201 13.1123 8.38867V5.88867H13.9453C14.0986 5.88867 14.2235 5.76456 14.2236 5.61133V2H15.334V5.88867Z" fill="#09162E"/>
<path fill-rule="evenodd" clip-rule="evenodd" d="M19.5557 14V14.833C19.5557 14.9862 19.6798 15.1112 19.833 15.1113H20.667V19.5557H19.833C19.6799 19.5558 19.5558 19.6799 19.5557 19.833V20.667H15.1113V19.833C15.1112 19.6798 14.9862 19.5557 14.833 19.5557H14V15.1113H14.833C14.9863 15.1113 15.1113 14.9863 15.1113 14.833V14H19.5557ZM15.3887 15.1113C15.2355 15.1114 15.1114 15.2355 15.1113 15.3887V19.2773C15.1113 19.4306 15.2354 19.5555 15.3887 19.5557H19.2773C19.4307 19.5557 19.5557 19.4307 19.5557 19.2773V15.3887C19.5556 15.2354 19.4306 15.1113 19.2773 15.1113H15.3887Z" fill="#09162E"/>
<path fill-rule="evenodd" clip-rule="evenodd" d="M8.55566 3.83301C8.55566 3.98623 8.67982 4.11115 8.83301 4.11133H9.66699V8.55566H8.83301C8.67992 8.55584 8.55581 8.67991 8.55566 8.83301V9.66699H4.11133V8.83301C4.11118 8.6798 3.98625 8.55566 3.83301 8.55566H3V4.11133H3.83301C3.98634 4.11133 4.11133 3.98634 4.11133 3.83301V3H8.55566V3.83301ZM4.38867 4.11133C4.23551 4.11145 4.11144 4.23551 4.11133 4.38867V8.27734C4.11133 8.4306 4.23544 8.55555 4.38867 8.55566H8.27734C8.43068 8.55566 8.55566 8.43068 8.55566 8.27734V4.38867C8.55555 4.23543 8.43061 4.11133 8.27734 4.11133H4.38867Z" fill="#09162E"/>
</svg>
