<svg width="40" height="40" viewBox="0 0 40 40" fill="none" xmlns="http://www.w3.org/2000/svg">
<path d="M8.89019 0H6.66797V2.22222H8.89019V0Z" fill="#09162E"/>
<path d="M13.3353 0H11.113V2.22222H13.3353V0Z" fill="#09162E"/>
<path d="M4.4464 0H2.22418V1.66667C2.22418 1.97333 1.97529 2.22222 1.66862 2.22222H0.00195312V6.66667H2.22418V2.77778C2.22418 2.47111 2.47306 2.22222 2.77973 2.22222H4.4464V0Z" fill="#09162E"/>
<path d="M2.22418 22.2227H0.00195312V24.4449H2.22418V22.2227Z" fill="#09162E"/>
<path d="M2.22418 26.667H0.00195312V28.8892H2.22418V26.667Z" fill="#09162E"/>
<path d="M2.22418 31.1113H0.00195312V33.3336H2.22418V31.1113Z" fill="#09162E"/>
<path d="M2.22418 17.7773H0.00195312V19.9996H2.22418V17.7773Z" fill="#09162E"/>
<path d="M2.22418 13.333H0.00195312V15.5552H2.22418V13.333Z" fill="#09162E"/>
<path d="M2.22418 8.88867H0.00195312V11.1109H2.22418V8.88867Z" fill="#09162E"/>
<path d="M22.2242 20H20.002V22.2222H22.2242V20Z" fill="#09162E"/>
<path d="M22.2242 24.4443H20.002V26.6666H22.2242V24.4443Z" fill="#09162E"/>
<path d="M22.2242 28.8887H20.002V31.1109H22.2242V28.8887Z" fill="#09162E"/>
<path d="M22.2242 15.5557H20.002V17.7779H22.2242V15.5557Z" fill="#09162E"/>
<path d="M22.2242 11.1113H20.002V13.3336H22.2242V11.1113Z" fill="#09162E"/>
<path d="M22.2242 6.66699H20.002V8.88921H22.2242V6.66699Z" fill="#09162E"/>
<path d="M22.2237 33.333H20.0015V37.2219C20.0015 37.5286 19.7526 37.7775 19.446 37.7775H17.7793V39.9997H20.0015V38.333C20.0015 38.0263 20.2504 37.7775 20.5571 37.7775H22.2237V33.333Z" fill="#09162E"/>
<path d="M20.0011 0H15.5566V2.22222H19.4455C19.7522 2.22222 20.0011 2.47111 20.0011 2.77778V4.44445H22.2233V2.22222H20.5566C20.25 2.22222 20.0011 1.97333 20.0011 1.66667V0Z" fill="#09162E"/>
<path d="M15.5582 37.7773H13.3359V39.9996H15.5582V37.7773Z" fill="#09162E"/>
<path d="M11.1128 37.7773H8.89062V39.9996H11.1128V37.7773Z" fill="#09162E"/>
<path d="M2.22418 35.5557H0.00195312V37.7779H1.66862C1.97529 37.7779 2.22418 38.0268 2.22418 38.3334V40.0001H6.66862V37.7779H2.77973C2.47306 37.7779 2.22418 37.529 2.22418 37.2223V35.5557Z" fill="#09162E"/>
<path d="M37.7798 0H31.1131V1.66667C31.1131 1.97333 30.8642 2.22222 30.5575 2.22222H28.8909V4.44445H31.1131V2.77778C31.1131 2.47111 31.362 2.22222 31.6686 2.22222H37.2242C37.5309 2.22222 37.7798 2.47111 37.7798 2.77778V8.33333C37.7798 8.64 37.5309 8.88889 37.2242 8.88889H31.1131V10.5556C31.1131 10.86 30.8687 11.1067 30.5642 11.1111H28.8909V17.7778H30.5575C30.8642 17.7778 31.1131 18.0267 31.1131 18.3333V20H40.002V17.7778H31.6686C31.362 17.7778 31.1131 17.5289 31.1131 17.2222V11.6667C31.1131 11.36 31.362 11.1111 31.6686 11.1111H31.1131H37.7798V9.44445C37.7798 9.13778 38.0286 8.88889 38.3353 8.88889H40.002V2.22222H38.3353C38.0286 2.22222 37.7798 1.97333 37.7798 1.66667V0Z" fill="#09162E"/>
</svg>
