<svg width="39" height="22" viewBox="0 0 39 22" fill="none" xmlns="http://www.w3.org/2000/svg">
<path d="M6.0465 7.104C6.0465 8.352 5.0745 9.12 3.3825 9.12C1.7025 9.12 0.706504 8.292 0.586504 6.924H1.7505C1.7985 7.716 2.4345 8.208 3.4065 8.208C4.2585 8.208 4.8225 7.908 4.8225 7.308C4.8225 6.78 4.4985 6.552 3.7065 6.396L2.6745 6.204C1.4985 5.976 0.838504 5.376 0.838504 4.416C0.838504 3.3 1.8105 2.52 3.2865 2.52C4.8105 2.52 5.8425 3.336 5.9505 4.644H4.7865C4.7145 3.876 4.1505 3.432 3.2985 3.432C2.5305 3.432 2.0145 3.756 2.0145 4.308C2.0145 4.824 2.3385 5.064 3.1065 5.208L4.1865 5.412C5.4465 5.64 6.0465 6.192 6.0465 7.104ZM8.84579 1.164C8.84579 1.62 8.48579 1.968 7.96979 1.968C7.45379 1.968 7.08179 1.62 7.08179 1.164C7.08179 0.696 7.45379 0.36 7.96979 0.36C8.48579 0.36 8.84579 0.696 8.84579 1.164ZM8.58179 9H7.36979V2.64H8.58179V9ZM11.4763 5.412V9H10.2643V2.64H11.3923V3.696C11.8243 2.988 12.5443 2.52 13.4203 2.52C14.7283 2.52 15.5923 3.36 15.5923 4.884V9H14.3803V5.292C14.3803 4.2 13.9003 3.588 13.0003 3.588C12.1723 3.588 11.4763 4.284 11.4763 5.412ZM22.2176 9.132C20.4776 9.132 19.2536 7.764 19.2536 5.82C19.2536 3.9 20.5016 2.52 22.2176 2.52C23.7896 2.52 24.9296 3.564 25.1576 5.22H23.8856C23.7536 4.2 23.1176 3.588 22.2296 3.588C21.1856 3.588 20.5016 4.476 20.5016 5.82C20.5016 7.176 21.1856 8.052 22.2296 8.052C23.1296 8.052 23.7536 7.452 23.8976 6.42H25.1576C24.9416 8.1 23.8136 9.132 22.2176 9.132ZM28.983 9.12C27.183 9.12 25.863 7.704 25.863 5.82C25.863 3.936 27.183 2.52 28.983 2.52C30.783 2.52 32.103 3.936 32.103 5.82C32.103 7.704 30.783 9.12 28.983 9.12ZM28.983 8.052C30.027 8.052 30.855 7.212 30.855 5.82C30.855 4.428 30.027 3.6 28.983 3.6C27.939 3.6 27.123 4.428 27.123 5.82C27.123 7.212 27.939 8.052 28.983 8.052ZM38.3785 7.104C38.3785 8.352 37.4065 9.12 35.7145 9.12C34.0345 9.12 33.0385 8.292 32.9185 6.924H34.0825C34.1305 7.716 34.7665 8.208 35.7385 8.208C36.5905 8.208 37.1545 7.908 37.1545 7.308C37.1545 6.78 36.8305 6.552 36.0385 6.396L35.0065 6.204C33.8305 5.976 33.1705 5.376 33.1705 4.416C33.1705 3.3 34.1425 2.52 35.6185 2.52C37.1425 2.52 38.1745 3.336 38.2825 4.644H37.1185C37.0465 3.876 36.4825 3.432 35.6305 3.432C34.8625 3.432 34.3465 3.756 34.3465 4.308C34.3465 4.824 34.6705 5.064 35.4385 5.208L36.5185 5.412C37.7785 5.64 38.3785 6.192 38.3785 7.104ZM4.5945 19.824V20.892C4.2225 21.06 3.8985 21.12 3.5145 21.12C2.3385 21.12 1.5225 20.484 1.5225 19.08V15.672H0.118504V14.64H1.5225V12.756H2.7345V14.64H4.6545V15.672H2.7345V18.804C2.7345 19.68 3.1545 19.992 3.8025 19.992C4.0905 19.992 4.3425 19.944 4.5945 19.824ZM9.66319 21V20.016C9.26719 20.724 8.55919 21.12 7.62319 21.12C6.30319 21.12 5.43919 20.364 5.43919 19.2C5.43919 17.952 6.43519 17.304 8.33119 17.304C8.70319 17.304 9.00319 17.316 9.51919 17.376V16.908C9.51919 15.996 9.02719 15.48 8.18719 15.48C7.29919 15.48 6.75919 16.008 6.72319 16.896H5.61919C5.67919 15.468 6.69919 14.52 8.18719 14.52C9.75919 14.52 10.6712 15.408 10.6712 16.92V21H9.66319ZM6.59119 19.164C6.59119 19.824 7.08319 20.256 7.86319 20.256C8.88319 20.256 9.51919 19.62 9.51919 18.648V18.132C9.05119 18.072 8.71519 18.06 8.40319 18.06C7.19119 18.06 6.59119 18.42 6.59119 19.164ZM13.5037 17.412V21H12.2917V14.64H13.4197V15.696C13.8517 14.988 14.5717 14.52 15.4477 14.52C16.7557 14.52 17.6197 15.36 17.6197 16.884V21H16.4077V17.292C16.4077 16.2 15.9277 15.588 15.0277 15.588C14.1997 15.588 13.5037 16.284 13.5037 17.412ZM24.245 21.132C22.505 21.132 21.281 19.764 21.281 17.82C21.281 15.9 22.529 14.52 24.245 14.52C25.817 14.52 26.957 15.564 27.185 17.22H25.913C25.781 16.2 25.145 15.588 24.257 15.588C23.213 15.588 22.529 16.476 22.529 17.82C22.529 19.176 23.213 20.052 24.257 20.052C25.157 20.052 25.781 19.452 25.925 18.42H27.185C26.969 20.1 25.841 21.132 24.245 21.132ZM31.0103 21.12C29.2103 21.12 27.8903 19.704 27.8903 17.82C27.8903 15.936 29.2103 14.52 31.0103 14.52C32.8103 14.52 34.1303 15.936 34.1303 17.82C34.1303 19.704 32.8103 21.12 31.0103 21.12ZM31.0103 20.052C32.0543 20.052 32.8823 19.212 32.8823 17.82C32.8823 16.428 32.0543 15.6 31.0103 15.6C29.9663 15.6 29.1503 16.428 29.1503 17.82C29.1503 19.212 29.9663 20.052 31.0103 20.052ZM38.8367 19.824V20.892C38.4647 21.06 38.1407 21.12 37.7567 21.12C36.5807 21.12 35.7647 20.484 35.7647 19.08V15.672H34.3607V14.64H35.7647V12.756H36.9767V14.64H38.8967V15.672H36.9767V18.804C36.9767 19.68 37.3967 19.992 38.0447 19.992C38.3327 19.992 38.5847 19.944 38.8367 19.824Z" fill="#122B5A"/>
</svg>
