<svg width="24" height="40" viewBox="0 0 24 40" fill="none" xmlns="http://www.w3.org/2000/svg">
<path d="M3.11309 40H23.1131V37.7778H3.11309V35.5556V36.1111C3.11309 35.8044 3.36198 35.5556 3.66865 35.5556H5.33531V31.6667C5.33531 31.36 5.5842 31.1111 5.89087 31.1111H7.55754V27.2222C7.55754 26.9156 7.80643 26.6667 8.11309 26.6667H9.77976V21.6667C9.77976 21.36 10.0286 21.1111 10.3353 21.1111H14.2242V19.4444C14.2242 19.1378 14.4731 18.8889 14.7798 18.8889H15.8909C16.1975 18.8889 16.4464 19.1378 16.4464 19.4444V21.1111H20.8909V18.8889H17.002C16.6953 18.8889 16.4464 18.64 16.4464 18.3333V13.8889C16.4464 13.5822 16.6953 13.3333 17.002 13.3333H18.6686V9.44445C18.6686 9.13778 18.9175 8.88889 19.2242 8.88889H20.8909V5C20.8909 4.69333 21.1398 4.44444 21.4464 4.44444H23.1131V2.22222L20.8909 0H0.890869V2.22222H20.8909V3.88889C20.8909 4.19556 20.642 4.44444 20.3353 4.44444H18.6686V8.33333C18.6686 8.64 18.4198 8.88889 18.1131 8.88889H16.4464V12.7778C16.4464 13.0844 16.1975 13.3333 15.8909 13.3333H14.2242V18.3333C14.2242 18.64 13.9753 18.8889 13.6686 18.8889H9.77976V20.5556C9.77976 20.8622 9.53087 21.1111 9.2242 21.1111H8.11309C7.80643 21.1111 7.55754 20.8622 7.55754 20.5556V18.8889H3.11309V21.1111H7.00198C7.30865 21.1111 7.55754 21.36 7.55754 21.6667V26.1111C7.55754 26.4178 7.30865 26.6667 7.00198 26.6667H5.33531V30.5556C5.33531 30.8622 5.08642 31.1111 4.77976 31.1111H3.11309V35C3.11309 35.3067 2.8642 35.5556 2.55754 35.5556H0.890869V37.7778L3.11309 40Z" fill="#09162E"/>
</svg>
