<svg width="24" height="40" viewBox="0 0 24 40" fill="none" xmlns="http://www.w3.org/2000/svg">
<path d="M3.66865 24.4444H5.33531V22.7778C5.33531 22.4711 5.5842 22.2222 5.89087 22.2222H18.6686V20.5556C18.6686 20.2489 18.9175 20 19.2242 20H20.8909V18.3333C20.8909 18.0267 21.1398 17.7778 21.4464 17.7778H23.1131V4.44444H21.4464C21.1398 4.44444 20.8909 4.19556 20.8909 3.88889V2.22222H19.2242C18.9175 2.22222 18.6686 1.97333 18.6686 1.66667V0H5.33531V1.66667C5.33531 1.97333 5.08642 2.22222 4.77976 2.22222H3.11309V3.88889C3.11309 4.19556 2.8642 4.44444 2.55754 4.44444H0.890869V8.88889H3.11309V5C3.11309 4.69333 3.36198 4.44444 3.66865 4.44444H5.33531V2.77778C5.33531 2.47111 5.5842 2.22222 5.89087 2.22222H18.1131C18.4198 2.22222 18.6686 2.47111 18.6686 2.77778V4.44444H20.3353C20.642 4.44444 20.8909 4.69333 20.8909 5V17.2222C20.8909 17.5289 20.642 17.7778 20.3353 17.7778H18.6686V19.4444C18.6686 19.7511 18.4198 20 18.1131 20H5.33531V21.6667C5.33531 21.9733 5.08642 22.2222 4.77976 22.2222H3.11309V23.8889C3.11309 24.1956 2.8642 24.4444 2.55754 24.4444H0.890869V37.7778L3.11309 40H23.1131V37.7778H3.11309V25C3.11309 24.6933 3.36198 24.4444 3.66865 24.4444Z" fill="#09162E"/>
</svg>
