<svg width="24" height="40" viewBox="0 0 24 40" fill="none" xmlns="http://www.w3.org/2000/svg">
<path d="M3.11309 31.1111H0.890869V35.5556H2.55754C2.8642 35.5556 3.11309 35.8044 3.11309 36.1111V37.7778H4.77974C5.08641 37.7778 5.3353 38.0267 5.3353 38.3333V40H18.6686V38.3333C18.6686 38.0267 18.9175 37.7778 19.2242 37.7778H20.8909V36.1111C20.8909 35.8044 21.1397 35.5556 21.4464 35.5556H23.1131V22.2222H21.4464C21.1397 22.2222 20.8909 21.9733 20.8909 21.6667V20H19.2242C18.9175 20 18.6686 19.7511 18.6686 19.4444V17.7778H5.89086C5.58419 17.7778 5.3353 17.5289 5.3353 17.2222V15.5556H3.66865C3.36198 15.5556 3.11309 15.3067 3.11309 15V2.22222H23.1131V0H3.11309L0.890869 2.22222V15.5556H2.55754C2.8642 15.5556 3.11309 15.8044 3.11309 16.1111V17.7778H4.77974C5.08641 17.7778 5.3353 18.0267 5.3353 18.3333V20H18.1131C18.4197 20 18.6686 20.2489 18.6686 20.5556V22.2222H20.3353C20.642 22.2222 20.8909 22.4711 20.8909 22.7778V35C20.8909 35.3067 20.642 35.5556 20.3353 35.5556H18.6686V37.2222C18.6686 37.5289 18.4197 37.7778 18.1131 37.7778H5.89086C5.58419 37.7778 5.3353 37.5289 5.3353 37.2222V35.5556H3.66865C3.36198 35.5556 3.11309 35.3067 3.11309 35V31.1111Z" fill="#09162E"/>
</svg>
