<svg width="24" height="40" viewBox="0 0 24 40" fill="none" xmlns="http://www.w3.org/2000/svg">
<path d="M2.55558 22.2222H0.888916V35.5556H2.55558C2.86225 35.5556 3.11114 35.8044 3.11114 36.1111V37.7778H4.7778C5.08447 37.7778 5.33336 38.0267 5.33336 38.3333V40H18.6667V38.3333C18.6667 38.0267 18.9156 37.7778 19.2222 37.7778H20.8889V36.1111C20.8889 35.8044 21.1378 35.5556 21.4445 35.5556H23.1111V22.2222H21.4445C21.1378 22.2222 20.8889 21.9733 20.8889 21.6667V20H19.2222C18.9156 20 18.6667 19.7511 18.6667 19.4444V17.7778H5.33336V19.4444C5.33336 19.7511 5.08447 20 4.7778 20H3.66669C3.36003 20 3.11114 19.7511 3.11114 19.4444V5C3.11114 4.69333 3.36003 4.44444 3.66669 4.44444H5.33336V2.77778C5.33336 2.47111 5.58225 2.22222 5.88892 2.22222H18.1111C18.4178 2.22222 18.6667 2.47111 18.6667 2.77778V4.44444H20.3334C20.64 4.44444 20.8889 4.69333 20.8889 5V8.88889H23.1111V4.44444H21.4445C21.1378 4.44444 20.8889 4.19556 20.8889 3.88889V2.22222H19.2222C18.9156 2.22222 18.6667 1.97333 18.6667 1.66667V0H5.33336V1.66667C5.33336 1.97333 5.08447 2.22222 4.7778 2.22222H3.11114V3.88889C3.11114 4.19556 2.86225 4.44444 2.55558 4.44444H0.888916V20H2.55558C2.86225 20 3.11114 20.2489 3.11114 20.5556V21.6667C3.11114 21.9733 2.86225 22.2222 2.55558 22.2222ZM5.33336 22.2222V20.5556C5.33336 20.2489 5.58225 20 5.88892 20H18.1111C18.4178 20 18.6667 20.2489 18.6667 20.5556V22.2222H20.3334C20.64 22.2222 20.8889 22.4711 20.8889 22.7778V35C20.8889 35.3067 20.64 35.5556 20.3334 35.5556H18.6667V37.2222C18.6667 37.5289 18.4178 37.7778 18.1111 37.7778H5.88892C5.58225 37.7778 5.33336 37.5289 5.33336 37.2222V35.5556H3.66669C3.36003 35.5556 3.11114 35.3067 3.11114 35V22.7778C3.11114 22.4711 3.36003 22.2222 3.66669 22.2222H5.33336Z" fill="#09162E"/>
</svg>
