<svg width="24" height="40" viewBox="0 0 24 40" fill="none" xmlns="http://www.w3.org/2000/svg">
<path d="M23.1131 2.22222L20.8909 0H0.890869V2.22222H20.8909V10.5556C20.8909 10.8622 20.642 11.1111 20.3353 11.1111H18.6686V12.7778C18.6686 13.0844 18.4198 13.3333 18.1131 13.3333H16.4464V17.2222C16.4464 17.5289 16.1975 17.7778 15.8909 17.7778H14.2242V21.6667C14.2242 21.9733 13.9753 22.2222 13.6686 22.2222H12.002V23.8889C12.002 24.1956 11.7531 24.4444 11.4464 24.4444H9.77976V40H12.002V25C12.002 24.6933 12.2509 24.4444 12.5575 24.4444H14.2242V22.7778C14.2242 22.4711 14.4731 22.2222 14.7798 22.2222H16.4464V18.3333C16.4464 18.0267 16.6953 17.7778 17.002 17.7778H18.6686V13.8889C18.6686 13.5822 18.9175 13.3333 19.2242 13.3333H20.8909V11.6667C20.8909 11.36 21.1398 11.1111 21.4464 11.1111H23.1131V2.22222Z" fill="#09162E"/>
</svg>
