<svg width="24" height="40" viewBox="0 0 24 40" fill="none" xmlns="http://www.w3.org/2000/svg">
<path d="M19.2242 17.7778H20.8909V16.1111C20.8909 15.8044 21.1398 15.5556 21.4464 15.5556H23.1131V4.44444H21.4464C21.1398 4.44444 20.8909 4.19556 20.8909 3.88889V2.22222H19.2242C18.9175 2.22222 18.6686 1.97333 18.6686 1.66667V0H5.33531V1.66667C5.33531 1.97333 5.08642 2.22222 4.77976 2.22222H3.11309V3.88889C3.11309 4.19556 2.8642 4.44444 2.55754 4.44444H0.890869V15.5556H2.55754C2.8642 15.5556 3.11309 15.8044 3.11309 16.1111V17.7778H4.77976C5.08642 17.7778 5.33531 18.0267 5.33531 18.3333V19.4444C5.33531 19.7511 5.08642 20 4.77976 20H3.11309V21.6667C3.11309 21.9733 2.8642 22.2222 2.55754 22.2222H0.890869V35.5556H2.55754C2.8642 35.5556 3.11309 35.8044 3.11309 36.1111V37.7778H4.77976C5.08642 37.7778 5.33531 38.0267 5.33531 38.3333V40H18.6686V38.3333C18.6686 38.0267 18.9175 37.7778 19.2242 37.7778H20.8909V36.1111C20.8909 35.8044 21.1398 35.5556 21.4464 35.5556H23.1131V22.2222H21.4464C21.1398 22.2222 20.8909 21.9733 20.8909 21.6667V20H19.2242C18.9175 20 18.6686 19.7511 18.6686 19.4444V18.3333C18.6686 18.0267 18.9175 17.7778 19.2242 17.7778ZM3.66865 15.5556C3.36198 15.5556 3.11309 15.3067 3.11309 15V5C3.11309 4.69333 3.36198 4.44444 3.66865 4.44444H5.33531V2.77778C5.33531 2.47111 5.5842 2.22222 5.89087 2.22222H18.1131C18.4198 2.22222 18.6686 2.47111 18.6686 2.77778V4.44444H20.3353C20.642 4.44444 20.8909 4.69333 20.8909 5V15C20.8909 15.3067 20.642 15.5556 20.3353 15.5556H18.6686V17.2222C18.6686 17.5289 18.4198 17.7778 18.1131 17.7778H5.89087C5.5842 17.7778 5.33531 17.5289 5.33531 17.2222V15.5556H3.66865ZM20.3353 22.2222C20.642 22.2222 20.8909 22.4711 20.8909 22.7778V35C20.8909 35.3067 20.642 35.5556 20.3353 35.5556H18.6686V37.2222C18.6686 37.5289 18.4198 37.7778 18.1131 37.7778H5.89087C5.5842 37.7778 5.33531 37.5289 5.33531 37.2222V35.5556H3.66865C3.36198 35.5556 3.11309 35.3067 3.11309 35V22.7778C3.11309 22.4711 3.36198 22.2222 3.66865 22.2222H5.33531V20.5556C5.33531 20.2489 5.5842 20 5.89087 20H18.1131C18.4198 20 18.6686 20.2489 18.6686 20.5556V22.2222H20.3353Z" fill="#09162E"/>
</svg>
