<svg width="40" height="28" viewBox="0 0 40 28" fill="none" xmlns="http://www.w3.org/2000/svg">
<path d="M38.3353 2.88921C38.0286 2.88921 37.7797 2.64033 37.7797 2.33366V0.666992H11.7642L0.00195312 12.4292L1.17971 13.607C1.39749 13.8248 1.39749 14.1759 1.17971 14.3937L0.00195312 15.5714L11.7642 27.3337H37.7797V25.667C37.7797 25.3603 38.0286 25.1114 38.3353 25.1114H40.002V2.88921H38.3353ZM12.6842 25.1114L1.96639 14.3937C1.74861 14.1759 1.74861 13.8248 1.96639 13.607L12.6842 2.88921H37.2242C37.5308 2.88921 37.7797 3.1381 37.7797 3.44477V24.5559C37.7797 24.8625 37.5308 25.1114 37.2242 25.1114H12.6842ZM28.1064 7.66032L23.7286 12.0381C23.5108 12.2537 23.1597 12.2537 22.9419 12.0381L18.5642 7.66032L16.9931 9.23144L21.3708 13.6092C21.5886 13.8248 21.5886 14.1781 21.3708 14.3937L16.9931 18.7714L18.5642 20.3425L22.9419 15.9648C23.1597 15.747 23.5108 15.747 23.7286 15.9648L28.1064 20.3425L29.6775 18.7714L25.2997 14.3937C25.0819 14.1781 25.0819 13.8248 25.2997 13.6092L29.6775 9.23144L28.1064 7.66032ZM24.5153 14.3937L23.7286 15.1803C23.513 15.3959 23.162 15.3959 22.9442 15.1803L22.1575 14.3937C21.9419 14.1759 21.9419 13.8248 22.1575 13.6092L22.9442 12.8225C23.1597 12.607 23.5108 12.6048 23.7286 12.8225L24.5175 13.6114C24.7331 13.8292 24.7331 14.1781 24.5175 14.3959L24.5153 14.3937Z" fill="#09162E"/>
</svg>
