<svg width="33" height="24" viewBox="0 0 33 24" fill="none" xmlns="http://www.w3.org/2000/svg">
<path d="M1.39725 9H0.173252V0.383999H1.39725V9ZM4.5555 1.164C4.5555 1.62 4.1955 1.968 3.6795 1.968C3.1635 1.968 2.7915 1.62 2.7915 1.164C2.7915 0.696 3.1635 0.36 3.6795 0.36C4.1955 0.36 4.5555 0.696 4.5555 1.164ZM4.2915 9H3.0795V2.64H4.2915V9ZM7.18603 9H5.97403V2.64H7.10203V3.696C7.53403 2.964 8.21803 2.52 9.09403 2.52C10.03 2.52 10.738 3 11.026 3.84C11.47 3.024 12.202 2.52 13.174 2.52C14.482 2.52 15.322 3.372 15.322 4.884V9H14.11V5.268C14.11 4.212 13.642 3.588 12.754 3.588C11.926 3.588 11.254 4.284 11.254 5.352V9H10.042V5.268C10.042 4.212 9.57403 3.588 8.68603 3.588C7.84603 3.588 7.18603 4.284 7.18603 5.352V9ZM18.9946 5.82C18.9946 3.888 20.0986 2.52 21.8146 2.52C22.6666 2.52 23.4106 2.952 23.8546 3.732V0.383999H25.0666V9H23.9386V7.86C23.4826 8.664 22.7146 9.12 21.8146 9.12C20.0986 9.12 18.9946 7.728 18.9946 5.82ZM20.2546 5.82C20.2546 7.236 20.9986 8.04 22.0546 8.04C23.0866 8.04 23.8546 7.2 23.8546 5.796C23.8546 4.368 23.0626 3.588 22.0546 3.588C20.9986 3.588 20.2546 4.38 20.2546 5.82ZM27.4114 9H26.0434L28.2994 5.748L26.1874 2.64H27.5914L29.1634 5.04L30.7354 2.64H32.0434L29.9554 5.784L32.1874 9H30.7954L29.0914 6.468L27.4114 9ZM2.94525 14.292V21.384C2.94525 22.788 2.05725 23.436 0.857252 23.436C0.593252 23.436 0.293252 23.412 0.017252 23.316V22.176C0.233252 22.272 0.449252 22.308 0.713252 22.308C1.31325 22.308 1.72125 22.02 1.72125 21.3V14.28C1.72125 12.912 2.60925 12.288 3.74925 12.288C4.04925 12.288 4.34925 12.336 4.64925 12.444V13.392C4.44525 13.284 4.21725 13.26 3.97725 13.26C3.37725 13.26 2.94525 13.572 2.94525 14.292ZM14.8491 23.316H8.28506V22.356L11.7051 17.736L8.44106 13.356V12.384H14.7291V13.476H10.0131L13.1811 17.748L9.83306 22.224H14.8491V23.316ZM30.246 17.82C30.246 19.752 29.034 21.12 27.306 21.12C25.842 21.12 24.93 20.112 24.21 18.84C23.502 20.124 22.578 21.12 21.126 21.12C19.398 21.12 18.186 19.752 18.186 17.82C18.186 15.888 19.398 14.52 21.126 14.52C22.578 14.52 23.502 15.504 24.222 16.776C24.93 15.516 25.842 14.52 27.306 14.52C29.034 14.52 30.246 15.888 30.246 17.82ZM19.446 17.82C19.446 19.128 20.19 20.052 21.258 20.052C22.374 20.052 23.046 19.068 23.646 17.82C23.046 16.56 22.374 15.588 21.258 15.588C20.19 15.588 19.446 16.5 19.446 17.82ZM24.786 17.82C25.374 19.056 26.058 20.052 27.162 20.052C28.242 20.052 28.986 19.128 28.986 17.82C28.986 16.5 28.242 15.588 27.162 15.588C26.058 15.588 25.374 16.572 24.786 17.82Z" fill="#122B5A"/>
</svg>
