<svg width="40" height="40" viewBox="0 0 40 40" fill="none" xmlns="http://www.w3.org/2000/svg">
<path d="M0.00195312 28.2378L11.4397 39.6756L13.0109 38.1044L2.68419 27.7778H28.8908V26.1111C28.8908 25.8044 29.1397 25.5556 29.4464 25.5556H33.3353V23.8889C33.3353 23.5822 33.5842 23.3333 33.8908 23.3333H35.5575V21.6667C35.5575 21.36 35.8064 21.1111 36.1131 21.1111H37.7797V17.2222C37.7797 16.9156 38.0286 16.6667 38.3353 16.6667H40.002V0H37.7797V16.1111C37.7797 16.4178 37.5308 16.6667 37.2242 16.6667H35.5575V20.5556C35.5575 20.8622 35.3086 21.1111 35.002 21.1111H33.3353V22.7778C33.3353 23.0844 33.0864 23.3333 32.7797 23.3333H28.8908V25C28.8908 25.3067 28.642 25.5556 28.3353 25.5556H2.68419L13.0109 15.2289L11.4397 13.6578L0.00195312 25.0956L1.18197 26.2756C1.39752 26.4933 1.39752 26.8422 1.18197 27.06L0.00417752 28.2378H0.00195312Z" fill="#09162E"/>
</svg>
