<svg width="36" height="36" viewBox="0 0 36 36" fill="none" xmlns="http://www.w3.org/2000/svg">
<path d="M19.9666 18.3935C19.7488 18.1758 19.7488 17.8247 19.9666 17.6069L35.4555 2.11799L33.8844 0.546875L18.3955 16.0358C18.1777 16.2513 17.8266 16.2513 17.6088 16.0358L2.11995 0.546875L0.548828 2.11799L16.0377 17.6069C16.2555 17.8224 16.2555 18.1758 16.0377 18.3913L0.548828 33.8802L2.11995 35.4513L17.6088 19.9624C17.8266 19.7447 18.1777 19.7447 18.3955 19.9624L33.8844 35.4513L35.4555 33.8802L19.9666 18.3913V18.3935ZM17.6111 19.1802L16.8244 18.3935C16.6089 18.1758 16.6089 17.8247 16.8244 17.6091L17.6111 16.8224C17.8266 16.6069 18.1777 16.6047 18.3955 16.8224L19.1844 17.6113C19.4 17.8291 19.4 18.178 19.1844 18.3958L18.3977 19.1824C18.1822 19.398 17.8311 19.398 17.6133 19.1824L17.6111 19.1802Z" fill="#09162E"/>
</svg>
