<svg width="14" height="40" viewBox="0 0 14 40" fill="none" xmlns="http://www.w3.org/2000/svg">
<path d="M11.1133 24.4451H9.44674V30.5559C9.44674 30.8625 9.19786 31.1114 8.89121 31.1114H7.22464V35.0001C7.22464 35.3067 6.97577 35.5556 6.66912 35.5556H5.00254V37.2222C5.00254 37.5288 4.75367 37.7777 4.44702 37.7777H0.55835V39.9998H5.00254V38.3332C5.00254 38.0266 5.25142 37.7777 5.55807 37.7777H7.22464V36.1111C7.22464 35.8045 7.47352 35.5556 7.78017 35.5556H9.44674V31.6669C9.44674 31.3603 9.69561 31.1114 10.0023 31.1114H11.6688V25.0006C11.6688 24.6939 11.9177 24.4451 12.2244 24.4451H13.8909V15.5567H12.2244C11.9177 15.5567 11.6688 15.3078 11.6688 15.0011V8.89036H10.0023C9.69561 8.89036 9.44674 8.64148 9.44674 8.33483V4.44616H7.78017C7.47352 4.44616 7.22464 4.19728 7.22464 3.89063V2.22405H5.55807C5.25142 2.22405 5.00254 1.97518 5.00254 1.66853V0.00195312H0.55835V2.22405H4.44702C4.75367 2.22405 5.00254 2.47293 5.00254 2.77958V4.44616H6.66912C6.97577 4.44616 7.22464 4.69503 7.22464 5.00168V8.89036H8.89121C9.19786 8.89036 9.44674 9.13924 9.44674 9.44589V15.5567H11.1133C11.42 15.5567 11.6688 15.8055 11.6688 16.1122V23.8895C11.6688 24.1962 11.42 24.4451 11.1133 24.4451Z" fill="#09162E"/>
</svg>
