<svg width="40" height="40" viewBox="0 0 40 40" fill="none" xmlns="http://www.w3.org/2000/svg">
<path d="M40.0019 0V2.22222H22.2242V8.88889H20.5575C20.2508 8.88889 20.002 9.13778 20.002 9.44444V15.5556H18.3353C18.0286 15.5556 17.7797 15.8044 17.7797 16.1111V22.2222H16.1131C15.8064 22.2222 15.5575 22.4711 15.5575 22.7778V28.8889H13.8908C13.5842 28.8889 13.3353 29.1378 13.3353 29.4444V35.5556H11.6686C11.362 35.5556 11.1131 35.8044 11.1131 36.1111V40H8.89084V36.1111C8.89084 35.8044 8.64195 35.5556 8.33529 35.5556H6.66862V31.6667C6.66862 31.36 6.41973 31.1111 6.11306 31.1111H4.4464V27.2222C4.4464 26.9156 4.19751 26.6667 3.89084 26.6667H0.00195312V24.4444H4.4464V26.1111C4.4464 26.4178 4.69529 26.6667 5.00195 26.6667H6.66862V30.5556C6.66862 30.8622 6.91751 31.1111 7.22418 31.1111H8.89084V35C8.89084 35.3067 9.13973 35.5556 9.4464 35.5556H10.5575C10.8642 35.5556 11.1131 35.3067 11.1131 35V28.8889H12.7797C13.0864 28.8889 13.3353 28.64 13.3353 28.3333V22.2222H15.002C15.3086 22.2222 15.5575 21.9733 15.5575 21.6667V15.5556H17.2242C17.5308 15.5556 17.7797 15.3067 17.7797 15V8.88889H19.4464C19.7531 8.88889 20.002 8.64 20.002 8.33333V2.22222L22.2242 0H40.0019ZM28.8908 11.6667C28.8908 11.36 29.1397 11.1111 29.4464 11.1111H31.1131V8.88889H28.8908V10.5556C28.8908 10.8622 28.642 11.1111 28.3353 11.1111H26.6686V15.5556H28.8908V11.6667ZM26.6686 24.4444H28.8908V22.2222H26.6686V24.4444ZM26.6686 28.8889H28.8908V26.6667H26.6686V28.8889ZM26.6686 33.3333H28.8908V31.1111H26.6686V33.3333ZM26.6686 20H28.8908V17.7778H26.6686V20ZM37.7797 22.2222H40.0019V20H37.7797V22.2222ZM37.7797 26.6667H40.0019V24.4444H37.7797V26.6667ZM37.7797 31.1111H40.0019V28.8889H37.7797V31.1111ZM37.7797 17.7778H40.0019V15.5556H37.7797V17.7778ZM37.7797 37.2222C37.7797 37.5289 37.5308 37.7778 37.2241 37.7778H35.5575V40H37.7797V38.3333C37.7797 38.0267 38.0286 37.7778 38.3353 37.7778H40.0019V33.3333H37.7797V37.2222ZM37.7797 10.5556V8.88889H33.3353V11.1111H37.2241C37.5308 11.1111 37.7797 11.36 37.7797 11.6667V13.3333H40.0019V11.1111H38.3353C38.0286 11.1111 37.7797 10.8622 37.7797 10.5556ZM28.8908 37.2222V35.5556H26.6686V37.7778H28.3353C28.642 37.7778 28.8908 38.0267 28.8908 38.3333V40H33.3353V37.7778H29.4464C29.1397 37.7778 28.8908 37.5289 28.8908 37.2222Z" fill="#09162E"/>
</svg>
