<svg width="24" height="40" viewBox="0 0 24 40" fill="none" xmlns="http://www.w3.org/2000/svg">
<path d="M20.8909 0V6.11111C20.8909 6.41778 20.642 6.66667 20.3353 6.66667H18.6686V12.7778C18.6686 13.0844 18.4198 13.3333 18.1131 13.3333H16.4464V18.3333C16.4464 18.64 16.1975 18.8889 15.8909 18.8889H13.1131V20.5556C13.1131 20.8622 12.8642 21.1111 12.5575 21.1111H11.4464C11.1398 21.1111 10.8909 20.8622 10.8909 20.5556V18.8889H8.11309C7.80642 18.8889 7.55754 18.64 7.55754 18.3333V13.3333H5.89087C5.5842 13.3333 5.33531 13.0844 5.33531 12.7778V6.66667H3.66865C3.36198 6.66667 3.11309 6.41778 3.11309 6.11111V0H0.890869V6.66667H2.55754C2.8642 6.66667 3.11309 6.91556 3.11309 7.22222V13.3333H4.77976C5.08642 13.3333 5.33531 13.5822 5.33531 13.8889V18.8889H7.00198C7.30865 18.8889 7.55754 19.1378 7.55754 19.4444V21.1111H10.3353C10.642 21.1111 10.8909 21.36 10.8909 21.6667V40H13.1131V21.6667C13.1131 21.36 13.362 21.1111 13.6686 21.1111H16.4464V19.4444C16.4464 19.1378 16.6953 18.8889 17.002 18.8889H18.6686V13.8889C18.6686 13.5822 18.9175 13.3333 19.2242 13.3333H20.8909V7.22222C20.8909 6.91556 21.1398 6.66667 21.4464 6.66667H23.1131V0H20.8909Z" fill="#09162E"/>
</svg>
